<svg id="Layer_1" data-name="Layer 1" xmlns="http://www.w3.org/2000/svg" viewBox="0 0 192.72 81.78"><defs><style>.cls-1{fill:#141c26;}.cls-2{fill:none;stroke:#141c26;stroke-miterlimit:10;stroke-width:4px;}</style></defs><title>logo</title><path class="cls-1" d="M122.74,208v.51H62.56a8.33,8.33,0,0,0-8.44,8.22v61.06A8.33,8.33,0,0,0,62.56,286H133V208ZM76.6,244l-6.44,3,6.44,3.17v7.38L60,247,76.6,236.47Zm8,25H78.48l15.23-44.58H99.8Zm25.84-14.18a5.34,5.34,0,0,0,4.18,1.64,5,5,0,0,0,3.57-1.39,7.52,7.52,0,0,0,2-3.95h6.65a17.55,17.55,0,0,1-2.3,6.36,11.41,11.41,0,0,1-4.16,4,11.76,11.76,0,0,1-5.75,1.39,13.83,13.83,0,0,1-6.66-1.49,10,10,0,0,1-4.21-4.34,15,15,0,0,1-1.45-6.88V240.9a15,15,0,0,1,1.45-6.89,10,10,0,0,1,4.21-4.34,13.71,13.71,0,0,1,6.66-1.5,11.8,11.8,0,0,1,5.76,1.39,11.31,11.31,0,0,1,4.17,4,17.26,17.26,0,0,1,2.28,6.38h-6.65a8.45,8.45,0,0,0-1.16-2.89,5.67,5.67,0,0,0-1.9-1.82,5,5,0,0,0-2.5-.63,5.34,5.34,0,0,0-4.18,1.65,6.71,6.71,0,0,0-1.49,4.65v9.35A6.67,6.67,0,0,0,110.41,254.89Z" transform="translate(-51.51 -206.08)"/><path class="cls-1" d="M132.19,262.6V228.53h6.43V262.6Zm3.24,0v-6.18h8.18a7.18,7.18,0,0,0,4.9-1.54,5.46,5.46,0,0,0,1.73-4.3v-10a5.44,5.44,0,0,0-1.73-4.31,7.17,7.17,0,0,0-4.9-1.53h-8.18v-6.18h8q6.42,0,9.92,3.2t3.51,9v9.65a13.17,13.17,0,0,1-1.5,6.39,10.36,10.36,0,0,1-4.49,4.29,16.29,16.29,0,0,1-7.47,1.53Z" transform="translate(-51.51 -206.08)"/><path class="cls-1" d="M163.23,262.6V228.53h6.42V262.6Zm2.32-27.89v-6.18h20.5v6.18Zm0,14.07v-6.19h17.93v6.19Zm0,13.82v-6.18h20.5v6.18Z" transform="translate(-51.51 -206.08)"/><path class="cls-1" d="M199.74,262.6,188.4,228.53H195l7.24,22.73,7.24-22.73h6.61L204.76,262.6Z" transform="translate(-51.51 -206.08)"/><path class="cls-1" d="M219.15,244v-7.57L235.77,247H225.59Zm0,6.12,6.44-3.17h10.18l-16.62,10.55Z" transform="translate(-51.51 -206.08)"/><rect class="cls-2" x="2" y="2" width="188.72" height="77.78" rx="9.57"/></svg>